<?xml version="1.0" encoding="UTF-8"?><svg width="73.5542mm" height="33.3375mm" viewBox="0 0 278 126" xmlns="http://www.w3.org/2000/svg" xmlns:xlink="http://www.w3.org/1999/xlink"><g fill="none" stroke="black" stroke-width="1" fill-rule="evenodd" stroke-linecap="square" stroke-linejoin="bevel"><g clip-path="none" fill="#ffffff" fill-opacity="1" opacity="1" stroke="none" stroke-opacity="0" transform="matrix(1,0,0,1,0,0)"><path d="M0,0 L278,0 L278,126 L0,126 L0,0 z" fill-rule="evenodd" vector-effect="none"/></g><defs><clipPath id="clip3"><path d="M-207,-5 L71,-5 L71,121 L-207,121 L-207,-5 z"/></clipPath></defs><g clip-path="url(#clip3)" fill="#ffffff" fill-opacity="1" opacity="1" stroke="none" stroke-opacity="0" transform="matrix(1,0,0,1,207,5)"><path d="M0,0 L55,0 L55,90 L0,90 L0,0 z" fill-rule="evenodd" vector-effect="none"/></g><defs><clipPath id="clip7"><path d="M-3,-15 L52,-15 L52,75 L-3,75 L-3,-15 z"/></clipPath></defs><g clip-path="url(#clip7)" fill="none" opacity="1" stroke="#000000" stroke-linecap="butt" stroke-linejoin="miter" stroke-miterlimit="2" stroke-opacity="1" stroke-width="1" transform="matrix(1,0,0,1,210,20)"><text fill="#000000" fill-opacity="1" font-family="Arial" font-size="9" font-style="normal" font-weight="400" stroke="none" textLength="19.9688" x="0" xml:space="preserve" y="3">x1(k)</text></g><defs><clipPath id="clip8"><path d="M-3,-45 L52,-45 L52,45 L-3,45 L-3,-45 z"/></clipPath></defs><g clip-path="url(#clip8)" fill="none" opacity="1" stroke="#000000" stroke-linecap="butt" stroke-linejoin="miter" stroke-miterlimit="2" stroke-opacity="1" stroke-width="1" transform="matrix(1,0,0,1,210,50)"><text fill="#000000" fill-opacity="1" font-family="Arial" font-size="9" font-style="normal" font-weight="400" stroke="none" textLength="19.9688" x="0" xml:space="preserve" y="3">x2(k)</text></g><defs><clipPath id="clip9"><path d="M-3,-75 L52,-75 L52,15 L-3,15 L-3,-75 z"/></clipPath></defs><g clip-path="url(#clip9)" fill="none" opacity="1" stroke="#000000" stroke-linecap="butt" stroke-linejoin="miter" stroke-miterlimit="2" stroke-opacity="1" stroke-width="1" transform="matrix(1,0,0,1,210,80)"><text fill="#000000" fill-opacity="1" font-family="Arial" font-size="9" font-style="normal" font-weight="400" stroke="none" textLength="19.9688" x="0" xml:space="preserve" y="3">x3(k)</text></g><defs><clipPath id="clip10"><path d="M-52,-45 L3,-45 L3,45 L-52,45 L-52,-45 z"/></clipPath></defs><g clip-path="url(#clip10)" fill="none" opacity="1" stroke="#000000" stroke-linecap="butt" stroke-linejoin="miter" stroke-miterlimit="2" stroke-opacity="1" stroke-width="1" transform="matrix(1,0,0,1,259,50)"><text fill="#000000" fill-opacity="1" font-family="Arial" font-size="9" font-style="normal" font-weight="400" stroke="none" textLength="15.4688" x="-15.4688" xml:space="preserve" y="3">u(k)</text></g><defs><clipPath id="clip15"><path d="M-207.5,-5.5 L70.5,-5.5 L70.5,120.5 L-207.5,120.5 L-207.5,-5.5 z"/></clipPath></defs><g clip-path="url(#clip15)" fill="none" opacity="1" stroke="#000000" stroke-linecap="butt" stroke-linejoin="miter" stroke-miterlimit="2" stroke-opacity="1" stroke-width="1" transform="matrix(1,0,0,1,207.5,5.5)"><path d="M0,0 L55,0 L55,90 L0,90 L0,0 z" fill-rule="evenodd" vector-effect="none"/></g><defs><clipPath id="clip18"><path d="M-234.5,-97 L43.5,-97 L43.5,29 L-234.5,29 L-234.5,-97 z"/></clipPath></defs><g clip-path="url(#clip18)" fill="none" opacity="1" stroke="none" stroke-opacity="0" transform="matrix(1,0,0,1,234.5,97)"><path d="M-21.1875,0 L21.1875,0 L21.1875,14 L-21.1875,14 L-21.1875,0 z" fill-rule="evenodd" vector-effect="none"/></g><defs><clipPath id="clip22"><path d="M0,0 L42,0 L42,14 L0,14 L0,0 z"/></clipPath></defs><g clip-path="url(#clip22)" fill="none" opacity="1" stroke="#000000" stroke-linecap="square" stroke-linejoin="bevel" stroke-opacity="1" stroke-width="1" transform="matrix(1,0,0,1,213.312,97)"><text fill="#000000" fill-opacity="1" font-family="Arial" font-size="10" font-style="normal" font-weight="400" stroke="none" textLength="39.375" x="1.5" xml:space="preserve" y="10">regulator</text></g><defs><clipPath id="clip30"><path d="M-17,-2 L261,-2 L261,124 L-17,124 L-17,-2 z"/></clipPath></defs><g clip-path="url(#clip30)" fill="#ffffff" fill-opacity="1" opacity="1" stroke="none" stroke-opacity="0" transform="matrix(1,0,0,1,17,2)"><path d="M0,0 L75,0 L75,96 L0,96 L0,0 z" fill-rule="evenodd" vector-effect="none"/></g><defs><clipPath id="clip34"><path d="M-3,-48 L72,-48 L72,48 L-3,48 L-3,-48 z"/></clipPath></defs><g clip-path="url(#clip34)" fill="none" opacity="1" stroke="#000000" stroke-linecap="butt" stroke-linejoin="miter" stroke-miterlimit="2" stroke-opacity="1" stroke-width="1" transform="matrix(1,0,0,1,20,50)"><text fill="#000000" fill-opacity="1" font-family="Arial" font-size="9" font-style="normal" font-weight="400" stroke="none" textLength="16" x="0" xml:space="preserve" y="3">u(k)</text></g><defs><clipPath id="clip35"><path d="M-72,-18 L3,-18 L3,78 L-72,78 L-72,-18 z"/></clipPath></defs><g clip-path="url(#clip35)" fill="none" opacity="1" stroke="#000000" stroke-linecap="butt" stroke-linejoin="miter" stroke-miterlimit="2" stroke-opacity="1" stroke-width="1" transform="matrix(1,0,0,1,89,20)"><text fill="#000000" fill-opacity="1" font-family="Arial" font-size="9" font-style="normal" font-weight="400" stroke="none" textLength="21" x="-22.4688" xml:space="preserve" y="3">x1(k)</text></g><defs><clipPath id="clip36"><path d="M-72,-48 L3,-48 L3,48 L-72,48 L-72,-48 z"/></clipPath></defs><g clip-path="url(#clip36)" fill="none" opacity="1" stroke="#000000" stroke-linecap="butt" stroke-linejoin="miter" stroke-miterlimit="2" stroke-opacity="1" stroke-width="1" transform="matrix(1,0,0,1,89,50)"><text fill="#000000" fill-opacity="1" font-family="Arial" font-size="9" font-style="normal" font-weight="400" stroke="none" textLength="19.9688" x="-19.9688" xml:space="preserve" y="3">x2(k)</text></g><defs><clipPath id="clip37"><path d="M-72,-78 L3,-78 L3,18 L-72,18 L-72,-78 z"/></clipPath></defs><g clip-path="url(#clip37)" fill="none" opacity="1" stroke="#000000" stroke-linecap="butt" stroke-linejoin="miter" stroke-miterlimit="2" stroke-opacity="1" stroke-width="1" transform="matrix(1,0,0,1,89,80)"><text fill="#000000" fill-opacity="1" font-family="Arial" font-size="9" font-style="normal" font-weight="400" stroke="none" textLength="19.9688" x="-19.9688" xml:space="preserve" y="3">x3(k)</text></g><defs><clipPath id="clip42"><path d="M-17.5,-2.5 L260.5,-2.5 L260.5,123.5 L-17.5,123.5 L-17.5,-2.5 z"/></clipPath></defs><g clip-path="url(#clip42)" fill="none" opacity="1" stroke="#000000" stroke-linecap="butt" stroke-linejoin="miter" stroke-miterlimit="2" stroke-opacity="1" stroke-width="1" transform="matrix(1,0,0,1,17.5,2.5)"><path d="M0,0 L75,0 L75,96 L0,96 L0,0 z" fill-rule="evenodd" vector-effect="none"/></g><defs><clipPath id="clip45"><path d="M-54.5,-100 L223.5,-100 L223.5,26 L-54.5,26 L-54.5,-100 z"/></clipPath></defs><g clip-path="url(#clip45)" fill="none" opacity="1" stroke="none" stroke-opacity="0" transform="matrix(1,0,0,1,54.5,100)"><path d="M-14.5938,0 L14.5938,0 L14.5938,14 L-14.5938,14 L-14.5938,0 z" fill-rule="evenodd" vector-effect="none"/></g><defs><clipPath id="clip49"><path d="M0,0 L29,0 L29,14 L0,14 L0,0 z"/></clipPath></defs><g clip-path="url(#clip49)" fill="none" opacity="1" stroke="#000000" stroke-linecap="square" stroke-linejoin="bevel" stroke-opacity="1" stroke-width="1" transform="matrix(1,0,0,1,39.9062,100)"><text fill="#000000" fill-opacity="1" font-family="Arial" font-size="10" font-style="normal" font-weight="400" stroke="none" textLength="27.1875" x="1" xml:space="preserve" y="10">model</text></g><defs><clipPath id="clip57"><path d="M-207,-20 L71,-20 L71,106 L-207,106 L-207,-20 z"/></clipPath></defs><g clip-path="url(#clip57)" fill="#000000" fill-opacity="1" opacity="1" stroke="none" stroke-opacity="0" transform="matrix(1,0,0,1,207,20)"><path d="M0,0 L-8,-4 L-8,4 L0,0 z" fill-rule="nonzero" vector-effect="none"/></g><defs><clipPath id="clip60"><path d="M493,135 L771,135 L771,261 L493,261 L493,135 z"/></clipPath></defs><g clip-path="url(#clip60)" fill="none" opacity="1" stroke="#000000" stroke-linecap="butt" stroke-linejoin="miter" stroke-miterlimit="2" stroke-opacity="1" stroke-width="1" transform="matrix(1,0,0,1,-493,-135)"><path d="M585,155 L692,155" fill-rule="evenodd" vector-effect="none"/></g><defs><clipPath id="clip63"><path d="M-207,-50 L71,-50 L71,76 L-207,76 L-207,-50 z"/></clipPath></defs><g clip-path="url(#clip63)" fill="#000000" fill-opacity="1" opacity="1" stroke="none" stroke-opacity="0" transform="matrix(1,0,0,1,207,50)"><path d="M0,0 L-8,-4 L-8,4 L0,0 z" fill-rule="nonzero" vector-effect="none"/></g><defs><clipPath id="clip66"><path d="M493,135 L771,135 L771,261 L493,261 L493,135 z"/></clipPath></defs><g clip-path="url(#clip66)" fill="none" opacity="1" stroke="#000000" stroke-linecap="butt" stroke-linejoin="miter" stroke-miterlimit="2" stroke-opacity="1" stroke-width="1" transform="matrix(1,0,0,1,-493,-135)"><path d="M585,185 L692,185" fill-rule="evenodd" vector-effect="none"/></g><defs><clipPath id="clip69"><path d="M-207,-80 L71,-80 L71,46 L-207,46 L-207,-80 z"/></clipPath></defs><g clip-path="url(#clip69)" fill="#000000" fill-opacity="1" opacity="1" stroke="none" stroke-opacity="0" transform="matrix(1,0,0,1,207,80)"><path d="M0,0 L-8,-4 L-8,4 L0,0 z" fill-rule="nonzero" vector-effect="none"/></g><defs><clipPath id="clip72"><path d="M493,135 L771,135 L771,261 L493,261 L493,135 z"/></clipPath></defs><g clip-path="url(#clip72)" fill="none" opacity="1" stroke="#000000" stroke-linecap="butt" stroke-linejoin="miter" stroke-miterlimit="2" stroke-opacity="1" stroke-width="1" transform="matrix(1,0,0,1,-493,-135)"><path d="M585,215 L692,215" fill-rule="evenodd" vector-effect="none"/></g><defs><clipPath id="clip75"><path d="M-17,-50 L261,-50 L261,76 L-17,76 L-17,-50 z"/></clipPath></defs><g clip-path="url(#clip75)" fill="#000000" fill-opacity="1" opacity="1" stroke="none" stroke-opacity="0" transform="matrix(1,0,0,1,17,50)"><path d="M0,0 L-8,-4 L-8,4 L0,0 z" fill-rule="nonzero" vector-effect="none"/></g><defs><clipPath id="clip78"><path d="M493,135 L771,135 L771,261 L493,261 L493,135 z"/></clipPath></defs><g clip-path="url(#clip78)" fill="none" opacity="1" stroke="#000000" stroke-linecap="butt" stroke-linejoin="miter" stroke-miterlimit="2" stroke-opacity="1" stroke-width="1" transform="matrix(1,0,0,1,-493,-135)"><path d="M755,185 L769,185 L769,259 L495,259 L495,185 L502,185" fill-rule="evenodd" vector-effect="none"/></g></g><!--generated on windows @ 2018-04-26 20:27:13 Central European Summer Time--></svg>
