<?xml version="1.0" encoding="UTF-8"?><svg width="178.329mm" height="90.7521mm" viewBox="0 0 674 343" xmlns="http://www.w3.org/2000/svg" xmlns:xlink="http://www.w3.org/1999/xlink"><g fill="none" stroke="black" stroke-width="1" fill-rule="evenodd" stroke-linecap="square" stroke-linejoin="bevel"><g clip-path="none" fill="#ffffff" fill-opacity="1" opacity="1" stroke="none" stroke-opacity="0" transform="matrix(1,0,0,1,0,0)"><path d="M0,0 L674,0 L674,343 L0,343 L0,0 z" fill-rule="evenodd" vector-effect="none"/></g><defs><clipPath id="clip3"><path d="M-190,-121 L484,-121 L484,222 L-190,222 L-190,-121 z"/></clipPath></defs><g clip-path="url(#clip3)" fill="#ffffff" fill-opacity="1" opacity="1" stroke="none" stroke-opacity="0" transform="matrix(1,0,0,1,190,121)"><path d="M0,0 L24.2031,0 L24.2031,14 L0,14 L0,0 z" fill-rule="evenodd" vector-effect="none"/></g><defs><clipPath id="clip8"><path d="M-5,-5 L29,-5 L29,19 L-5,19 L-5,-5 z"/></clipPath></defs><g clip-path="url(#clip8)" fill="none" opacity="1" stroke="none" stroke-opacity="0" transform="matrix(1,0,0,1,190,121)"><path d="M1,1 L23.2031,1 L23.2031,13 L1,13 L1,1 z" fill-rule="evenodd" vector-effect="none"/></g><defs><clipPath id="clip9"><path d="M-5,-5 L29,-5 L29,19 L-5,19 L-5,-5 z"/></clipPath></defs><g clip-path="url(#clip9)" fill="#ffffff" fill-opacity="1" opacity="1" stroke="#000000" stroke-linecap="square" stroke-linejoin="bevel" stroke-opacity="1" stroke-width="1" transform="matrix(1,0,0,1,190,121)"><text fill="#000000" fill-opacity="1" font-family="Arial" font-size="10" font-style="normal" font-weight="400" stroke="none" textLength="22.2031" x="1" xml:space="preserve" y="10">x1(k)</text></g><defs><clipPath id="clip17"><path d="M-300,-121 L374,-121 L374,222 L-300,222 L-300,-121 z"/></clipPath></defs><g clip-path="url(#clip17)" fill="#ffffff" fill-opacity="1" opacity="1" stroke="none" stroke-opacity="0" transform="matrix(1,0,0,1,300,121)"><path d="M0,0 L24.2031,0 L24.2031,14 L0,14 L0,0 z" fill-rule="evenodd" vector-effect="none"/></g><defs><clipPath id="clip22"><path d="M-5,-5 L29,-5 L29,19 L-5,19 L-5,-5 z"/></clipPath></defs><g clip-path="url(#clip22)" fill="none" opacity="1" stroke="none" stroke-opacity="0" transform="matrix(1,0,0,1,300,121)"><path d="M1,1 L23.2031,1 L23.2031,13 L1,13 L1,1 z" fill-rule="evenodd" vector-effect="none"/></g><defs><clipPath id="clip23"><path d="M-5,-5 L29,-5 L29,19 L-5,19 L-5,-5 z"/></clipPath></defs><g clip-path="url(#clip23)" fill="#ffffff" fill-opacity="1" opacity="1" stroke="#000000" stroke-linecap="square" stroke-linejoin="bevel" stroke-opacity="1" stroke-width="1" transform="matrix(1,0,0,1,300,121)"><text fill="#000000" fill-opacity="1" font-family="Arial" font-size="10" font-style="normal" font-weight="400" stroke="none" textLength="22.2031" x="1" xml:space="preserve" y="10">x2(k)</text></g><defs><clipPath id="clip31"><path d="M-417,-121 L257,-121 L257,222 L-417,222 L-417,-121 z"/></clipPath></defs><g clip-path="url(#clip31)" fill="#ffffff" fill-opacity="1" opacity="1" stroke="none" stroke-opacity="0" transform="matrix(1,0,0,1,417,121)"><path d="M0,0 L24.2031,0 L24.2031,14 L0,14 L0,0 z" fill-rule="evenodd" vector-effect="none"/></g><defs><clipPath id="clip36"><path d="M-5,-5 L29,-5 L29,19 L-5,19 L-5,-5 z"/></clipPath></defs><g clip-path="url(#clip36)" fill="none" opacity="1" stroke="none" stroke-opacity="0" transform="matrix(1,0,0,1,417,121)"><path d="M1,1 L23.2031,1 L23.2031,13 L1,13 L1,1 z" fill-rule="evenodd" vector-effect="none"/></g><defs><clipPath id="clip37"><path d="M-5,-5 L29,-5 L29,19 L-5,19 L-5,-5 z"/></clipPath></defs><g clip-path="url(#clip37)" fill="#ffffff" fill-opacity="1" opacity="1" stroke="#000000" stroke-linecap="square" stroke-linejoin="bevel" stroke-opacity="1" stroke-width="1" transform="matrix(1,0,0,1,417,121)"><text fill="#000000" fill-opacity="1" font-family="Arial" font-size="10" font-style="normal" font-weight="400" stroke="none" textLength="22.2031" x="1" xml:space="preserve" y="10">x3(k)</text></g><defs><clipPath id="clip45"><path d="M-367,-121 L307,-121 L307,222 L-367,222 L-367,-121 z"/></clipPath></defs><g clip-path="url(#clip45)" fill="#ffffff" fill-opacity="1" opacity="1" stroke="none" stroke-opacity="0" transform="matrix(1,0,0,1,367,121)"><path d="M0,0 L35,0 L35,34 L0,34 L0,0 z" fill-rule="evenodd" vector-effect="none"/></g><defs><clipPath id="clip49"><path d="M0,0 L35,0 L35,34 L0,34 L0,0 z"/></clipPath></defs><g clip-path="url(#clip49)" fill="none" opacity="1" stroke="none" stroke-opacity="0" transform="matrix(1,0,0,1,367,121)"><path d="M0,0 L35,0 L35,34 L0,34 L0,0 z" fill-rule="evenodd" vector-effect="none"/></g><defs><clipPath id="clip60"><path d="M-2,-13 L7,-13 L7,18 L-2,18 L-2,-13 z"/></clipPath></defs><g clip-path="url(#clip60)" fill="#000000" fill-opacity="1" opacity="1" stroke="none" stroke-opacity="0" transform="matrix(0.7,0,0,0.7,383,136.5)"><path d="M-1,2 L6,2 L6,3 L-1,3 L-1,2 z" fill-rule="evenodd" vector-effect="none"/></g><defs><clipPath id="clip61"><path d="M-2,-13 L7,-13 L7,18 L-2,18 L-2,-13 z"/></clipPath></defs><g clip-path="url(#clip61)" fill="#000000" fill-opacity="1" opacity="1" stroke="none" stroke-opacity="0" transform="matrix(0.7,0,0,0.7,383,136.5)"><path d="M4.125,-2 L4.125,-2.1875 C3.14062,-2.1875 2.89062,-2.42188 2.89062,-2.98438 L2.89062,-10.75 L2.76562,-10.7812 L0.4375,-9.60938 L0.4375,-9.42188 L0.796875,-9.54688 C1.03125,-9.64062 1.25,-9.70312 1.375,-9.70312 C1.65625,-9.70312 1.76562,-9.51562 1.76562,-9.07812 L1.76562,-3.23438 C1.76562,-2.51562 1.5,-2.25 0.53125,-2.1875 L0.53125,-2 L4.125,-2 z" fill-rule="nonzero" vector-effect="none"/></g><defs><clipPath id="clip62"><path d="M-2,-13 L7,-13 L7,18 L-2,18 L-2,-13 z"/></clipPath></defs><g clip-path="url(#clip62)" fill="#000000" fill-opacity="1" opacity="1" stroke="none" stroke-opacity="0" transform="matrix(0.7,0,0,0.7,383,136.5)"><path d="M4.42188,8.57812 L4.42188,8.4375 L0.75,8.4375 L0.328125,9.9375 L0.53125,10 C0.796875,9.32812 1.04688,9.21875 1.71875,9.21875 L3.48438,9.21875 L-0.546875,14.0469 L-0.421875,14.1719 C-0.21875,14 -0.046875,13.9375 0.15625,13.9375 C0.5,13.9375 0.921875,14.1094 1.53125,14.4844 C2.17188,14.8906 2.625,15.0469 3,15.0469 C3.71875,15.0469 4.20312,14.5781 4.20312,14.0625 C4.20312,13.7812 4.01562,13.5781 3.75,13.5781 C3.54688,13.5781 3.32812,13.8125 3.3125,14.0312 C3.3125,14.125 3.34375,14.2344 3.42188,14.3906 C3.46875,14.4688 3.48438,14.5312 3.48438,14.5781 C3.48438,14.7031 3.34375,14.7812 3.14062,14.7812 C2.8125,14.7812 2.5625,14.625 2.23438,14.125 C1.70312,13.3594 1.42188,13.2188 0.671875,13.0469 L4.42188,8.57812 z" fill-rule="nonzero" vector-effect="none"/></g><defs><clipPath id="clip85"><path d="M-367.5,-121.5 L306.5,-121.5 L306.5,221.5 L-367.5,221.5 L-367.5,-121.5 z"/></clipPath></defs><g clip-path="url(#clip85)" fill="none" opacity="1" stroke="#000000" stroke-linecap="butt" stroke-linejoin="miter" stroke-miterlimit="2" stroke-opacity="1" stroke-width="1" transform="matrix(1,0,0,1,367.5,121.5)"><path d="M0,0 L35,0 L35,34 L0,34 L0,0 z" fill-rule="evenodd" vector-effect="none"/></g><defs><clipPath id="clip88"><path d="M-252,-121 L422,-121 L422,222 L-252,222 L-252,-121 z"/></clipPath></defs><g clip-path="url(#clip88)" fill="#ffffff" fill-opacity="1" opacity="1" stroke="none" stroke-opacity="0" transform="matrix(1,0,0,1,252,121)"><path d="M0,0 L35,0 L35,34 L0,34 L0,0 z" fill-rule="evenodd" vector-effect="none"/></g><defs><clipPath id="clip92"><path d="M0,0 L35,0 L35,34 L0,34 L0,0 z"/></clipPath></defs><g clip-path="url(#clip92)" fill="none" opacity="1" stroke="none" stroke-opacity="0" transform="matrix(1,0,0,1,252,121)"><path d="M0,0 L35,0 L35,34 L0,34 L0,0 z" fill-rule="evenodd" vector-effect="none"/></g><defs><clipPath id="clip103"><path d="M-2,-13 L7,-13 L7,18 L-2,18 L-2,-13 z"/></clipPath></defs><g clip-path="url(#clip103)" fill="#000000" fill-opacity="1" opacity="1" stroke="none" stroke-opacity="0" transform="matrix(0.7,0,0,0.7,268,136.5)"><path d="M-1,2 L6,2 L6,3 L-1,3 L-1,2 z" fill-rule="evenodd" vector-effect="none"/></g><defs><clipPath id="clip104"><path d="M-2,-13 L7,-13 L7,18 L-2,18 L-2,-13 z"/></clipPath></defs><g clip-path="url(#clip104)" fill="#000000" fill-opacity="1" opacity="1" stroke="none" stroke-opacity="0" transform="matrix(0.7,0,0,0.7,268,136.5)"><path d="M4.125,-2 L4.125,-2.1875 C3.14062,-2.1875 2.89062,-2.42188 2.89062,-2.98438 L2.89062,-10.75 L2.76562,-10.7812 L0.4375,-9.60938 L0.4375,-9.42188 L0.796875,-9.54688 C1.03125,-9.64062 1.25,-9.70312 1.375,-9.70312 C1.65625,-9.70312 1.76562,-9.51562 1.76562,-9.07812 L1.76562,-3.23438 C1.76562,-2.51562 1.5,-2.25 0.53125,-2.1875 L0.53125,-2 L4.125,-2 z" fill-rule="nonzero" vector-effect="none"/></g><defs><clipPath id="clip105"><path d="M-2,-13 L7,-13 L7,18 L-2,18 L-2,-13 z"/></clipPath></defs><g clip-path="url(#clip105)" fill="#000000" fill-opacity="1" opacity="1" stroke="none" stroke-opacity="0" transform="matrix(0.7,0,0,0.7,268,136.5)"><path d="M4.42188,8.57812 L4.42188,8.4375 L0.75,8.4375 L0.328125,9.9375 L0.53125,10 C0.796875,9.32812 1.04688,9.21875 1.71875,9.21875 L3.48438,9.21875 L-0.546875,14.0469 L-0.421875,14.1719 C-0.21875,14 -0.046875,13.9375 0.15625,13.9375 C0.5,13.9375 0.921875,14.1094 1.53125,14.4844 C2.17188,14.8906 2.625,15.0469 3,15.0469 C3.71875,15.0469 4.20312,14.5781 4.20312,14.0625 C4.20312,13.7812 4.01562,13.5781 3.75,13.5781 C3.54688,13.5781 3.32812,13.8125 3.3125,14.0312 C3.3125,14.125 3.34375,14.2344 3.42188,14.3906 C3.46875,14.4688 3.48438,14.5312 3.48438,14.5781 C3.48438,14.7031 3.34375,14.7812 3.14062,14.7812 C2.8125,14.7812 2.5625,14.625 2.23438,14.125 C1.70312,13.3594 1.42188,13.2188 0.671875,13.0469 L4.42188,8.57812 z" fill-rule="nonzero" vector-effect="none"/></g><defs><clipPath id="clip128"><path d="M-252.5,-121.5 L421.5,-121.5 L421.5,221.5 L-252.5,221.5 L-252.5,-121.5 z"/></clipPath></defs><g clip-path="url(#clip128)" fill="none" opacity="1" stroke="#000000" stroke-linecap="butt" stroke-linejoin="miter" stroke-miterlimit="2" stroke-opacity="1" stroke-width="1" transform="matrix(1,0,0,1,252.5,121.5)"><path d="M0,0 L35,0 L35,34 L0,34 L0,0 z" fill-rule="evenodd" vector-effect="none"/></g><defs><clipPath id="clip131"><path d="M-147,-121 L527,-121 L527,222 L-147,222 L-147,-121 z"/></clipPath></defs><g clip-path="url(#clip131)" fill="#ffffff" fill-opacity="1" opacity="1" stroke="none" stroke-opacity="0" transform="matrix(1,0,0,1,147,121)"><path d="M0,0 L35,0 L35,34 L0,34 L0,0 z" fill-rule="evenodd" vector-effect="none"/></g><defs><clipPath id="clip135"><path d="M0,0 L35,0 L35,34 L0,34 L0,0 z"/></clipPath></defs><g clip-path="url(#clip135)" fill="none" opacity="1" stroke="none" stroke-opacity="0" transform="matrix(1,0,0,1,147,121)"><path d="M0,0 L35,0 L35,34 L0,34 L0,0 z" fill-rule="evenodd" vector-effect="none"/></g><defs><clipPath id="clip146"><path d="M-2,-13 L7,-13 L7,18 L-2,18 L-2,-13 z"/></clipPath></defs><g clip-path="url(#clip146)" fill="#000000" fill-opacity="1" opacity="1" stroke="none" stroke-opacity="0" transform="matrix(0.7,0,0,0.7,163,136.5)"><path d="M-1,2 L6,2 L6,3 L-1,3 L-1,2 z" fill-rule="evenodd" vector-effect="none"/></g><defs><clipPath id="clip147"><path d="M-2,-13 L7,-13 L7,18 L-2,18 L-2,-13 z"/></clipPath></defs><g clip-path="url(#clip147)" fill="#000000" fill-opacity="1" opacity="1" stroke="none" stroke-opacity="0" transform="matrix(0.7,0,0,0.7,163,136.5)"><path d="M4.125,-2 L4.125,-2.1875 C3.14062,-2.1875 2.89062,-2.42188 2.89062,-2.98438 L2.89062,-10.75 L2.76562,-10.7812 L0.4375,-9.60938 L0.4375,-9.42188 L0.796875,-9.54688 C1.03125,-9.64062 1.25,-9.70312 1.375,-9.70312 C1.65625,-9.70312 1.76562,-9.51562 1.76562,-9.07812 L1.76562,-3.23438 C1.76562,-2.51562 1.5,-2.25 0.53125,-2.1875 L0.53125,-2 L4.125,-2 z" fill-rule="nonzero" vector-effect="none"/></g><defs><clipPath id="clip148"><path d="M-2,-13 L7,-13 L7,18 L-2,18 L-2,-13 z"/></clipPath></defs><g clip-path="url(#clip148)" fill="#000000" fill-opacity="1" opacity="1" stroke="none" stroke-opacity="0" transform="matrix(0.7,0,0,0.7,163,136.5)"><path d="M4.42188,8.57812 L4.42188,8.4375 L0.75,8.4375 L0.328125,9.9375 L0.53125,10 C0.796875,9.32812 1.04688,9.21875 1.71875,9.21875 L3.48438,9.21875 L-0.546875,14.0469 L-0.421875,14.1719 C-0.21875,14 -0.046875,13.9375 0.15625,13.9375 C0.5,13.9375 0.921875,14.1094 1.53125,14.4844 C2.17188,14.8906 2.625,15.0469 3,15.0469 C3.71875,15.0469 4.20312,14.5781 4.20312,14.0625 C4.20312,13.7812 4.01562,13.5781 3.75,13.5781 C3.54688,13.5781 3.32812,13.8125 3.3125,14.0312 C3.3125,14.125 3.34375,14.2344 3.42188,14.3906 C3.46875,14.4688 3.48438,14.5312 3.48438,14.5781 C3.48438,14.7031 3.34375,14.7812 3.14062,14.7812 C2.8125,14.7812 2.5625,14.625 2.23438,14.125 C1.70312,13.3594 1.42188,13.2188 0.671875,13.0469 L4.42188,8.57812 z" fill-rule="nonzero" vector-effect="none"/></g><defs><clipPath id="clip171"><path d="M-147.5,-121.5 L526.5,-121.5 L526.5,221.5 L-147.5,221.5 L-147.5,-121.5 z"/></clipPath></defs><g clip-path="url(#clip171)" fill="none" opacity="1" stroke="#000000" stroke-linecap="butt" stroke-linejoin="miter" stroke-miterlimit="2" stroke-opacity="1" stroke-width="1" transform="matrix(1,0,0,1,147.5,121.5)"><path d="M0,0 L35,0 L35,34 L0,34 L0,0 z" fill-rule="evenodd" vector-effect="none"/></g><defs><clipPath id="clip174"><path d="M-62,-65 L612,-65 L612,278 L-62,278 L-62,-65 z"/></clipPath></defs><g clip-path="url(#clip174)" fill="#ffffff" fill-opacity="1" opacity="1" stroke="none" stroke-opacity="0" transform="matrix(1,0,0,1,62,65)"><path d="M0,0 L25,0 L25,96 L0,96 L0,0 z" fill-rule="nonzero" vector-effect="none"/></g><defs><clipPath id="clip178"><path d="M115,207 L140,207 L140,303 L115,303 L115,207 z"/></clipPath></defs><g clip-path="url(#clip178)" fill="none" opacity="1" stroke="#000000" stroke-linecap="butt" stroke-linejoin="miter" stroke-miterlimit="2" stroke-opacity="1" stroke-width="1" transform="matrix(1,0,0,1,-52.5,-141.5)"><polyline fill="none" points="118,235 122,235" vector-effect="none"/></g><defs><clipPath id="clip179"><path d="M115,207 L140,207 L140,303 L115,303 L115,207 z"/></clipPath></defs><g clip-path="url(#clip179)" fill="none" opacity="1" stroke="#000000" stroke-linecap="butt" stroke-linejoin="miter" stroke-miterlimit="2" stroke-opacity="1" stroke-width="1" transform="matrix(1,0,0,1,-52.5,-141.5)"><polyline fill="none" points="120,233 120,237" vector-effect="none"/></g><defs><clipPath id="clip180"><path d="M115,207 L140,207 L140,303 L115,303 L115,207 z"/></clipPath></defs><g clip-path="url(#clip180)" fill="none" opacity="1" stroke="#000000" stroke-linecap="butt" stroke-linejoin="miter" stroke-miterlimit="2" stroke-opacity="1" stroke-width="1" transform="matrix(1,0,0,1,-52.5,-141.5)"><polyline fill="none" points="118,255 122,255" vector-effect="none"/></g><defs><clipPath id="clip181"><path d="M115,207 L140,207 L140,303 L115,303 L115,207 z"/></clipPath></defs><g clip-path="url(#clip181)" fill="none" opacity="1" stroke="#000000" stroke-linecap="butt" stroke-linejoin="miter" stroke-miterlimit="2" stroke-opacity="1" stroke-width="1" transform="matrix(1,0,0,1,-52.5,-141.5)"><polyline fill="none" points="120,253 120,257" vector-effect="none"/></g><defs><clipPath id="clip182"><path d="M115,207 L140,207 L140,303 L115,303 L115,207 z"/></clipPath></defs><g clip-path="url(#clip182)" fill="none" opacity="1" stroke="#000000" stroke-linecap="butt" stroke-linejoin="miter" stroke-miterlimit="2" stroke-opacity="1" stroke-width="1" transform="matrix(1,0,0,1,-52.5,-141.5)"><polyline fill="none" points="118,275 122,275" vector-effect="none"/></g><defs><clipPath id="clip183"><path d="M115,207 L140,207 L140,303 L115,303 L115,207 z"/></clipPath></defs><g clip-path="url(#clip183)" fill="none" opacity="1" stroke="#000000" stroke-linecap="butt" stroke-linejoin="miter" stroke-miterlimit="2" stroke-opacity="1" stroke-width="1" transform="matrix(1,0,0,1,-52.5,-141.5)"><polyline fill="none" points="120,273 120,277" vector-effect="none"/></g><defs><clipPath id="clip184"><path d="M115,207 L140,207 L140,303 L115,303 L115,207 z"/></clipPath></defs><g clip-path="url(#clip184)" fill="none" opacity="1" stroke="#000000" stroke-linecap="butt" stroke-linejoin="miter" stroke-miterlimit="2" stroke-opacity="1" stroke-width="1" transform="matrix(1,0,0,1,-52.5,-141.5)"><polyline fill="none" points="118,295 122,295" vector-effect="none"/></g><defs><clipPath id="clip185"><path d="M115,207 L140,207 L140,303 L115,303 L115,207 z"/></clipPath></defs><g clip-path="url(#clip185)" fill="none" opacity="1" stroke="#000000" stroke-linecap="butt" stroke-linejoin="miter" stroke-miterlimit="2" stroke-opacity="1" stroke-width="1" transform="matrix(1,0,0,1,-52.5,-141.5)"><polyline fill="none" points="120,293 120,297" vector-effect="none"/></g><defs><clipPath id="clip190"><path d="M-62.5,-65.5 L611.5,-65.5 L611.5,277.5 L-62.5,277.5 L-62.5,-65.5 z"/></clipPath></defs><g clip-path="url(#clip190)" fill="none" opacity="1" stroke="#000000" stroke-linecap="butt" stroke-linejoin="miter" stroke-miterlimit="2" stroke-opacity="1" stroke-width="1" transform="matrix(1,0,0,1,62.5,65.5)"><path d="M0,0 L25,0 L25,96 L0,96 L0,0 z" fill-rule="nonzero" vector-effect="none"/></g><defs><clipPath id="clip193"><path d="M-137,-175 L537,-175 L537,168 L-137,168 L-137,-175 z"/></clipPath></defs><g clip-path="url(#clip193)" fill="#ffffff" fill-opacity="1" opacity="1" stroke="none" stroke-opacity="0" transform="matrix(1,0,0,1,137,175)"><path d="M50,46 L0,23 L50,0 L50,46 z" fill-rule="nonzero" vector-effect="none"/></g><defs><clipPath id="clip197"><path d="M-31,-23 L19,-23 L19,23 L-31,23 L-31,-23 z"/></clipPath></defs><g clip-path="url(#clip197)" fill="none" opacity="1" stroke="#000000" stroke-linecap="butt" stroke-linejoin="miter" stroke-miterlimit="2" stroke-opacity="1" stroke-width="1" transform="matrix(1,0,0,1,168,198)"><text fill="#000000" fill-opacity="1" font-family="Arial" font-size="10" font-style="normal" font-weight="400" stroke="none" textLength="32.7188" x="-16.3594" xml:space="preserve" y="3.5">A1(1,1)</text></g><defs><clipPath id="clip202"><path d="M-137.5,-175.5 L536.5,-175.5 L536.5,167.5 L-137.5,167.5 L-137.5,-175.5 z"/></clipPath></defs><g clip-path="url(#clip202)" fill="none" opacity="1" stroke="#000000" stroke-linecap="butt" stroke-linejoin="miter" stroke-miterlimit="2" stroke-opacity="1" stroke-width="1" transform="matrix(1,0,0,1,137.5,175.5)"><path d="M50,46 L0,23 L50,0 L50,46 z" fill-rule="nonzero" vector-effect="none"/></g><defs><clipPath id="clip205"><path d="M-137,-235 L537,-235 L537,108 L-137,108 L-137,-235 z"/></clipPath></defs><g clip-path="url(#clip205)" fill="#ffffff" fill-opacity="1" opacity="1" stroke="none" stroke-opacity="0" transform="matrix(1,0,0,1,137,235)"><path d="M50,46 L0,23 L50,0 L50,46 z" fill-rule="nonzero" vector-effect="none"/></g><defs><clipPath id="clip209"><path d="M-31,-23 L19,-23 L19,23 L-31,23 L-31,-23 z"/></clipPath></defs><g clip-path="url(#clip209)" fill="none" opacity="1" stroke="#000000" stroke-linecap="butt" stroke-linejoin="miter" stroke-miterlimit="2" stroke-opacity="1" stroke-width="1" transform="matrix(1,0,0,1,168,258)"><text fill="#000000" fill-opacity="1" font-family="Arial" font-size="10" font-style="normal" font-weight="400" stroke="none" textLength="32.7188" x="-16.3594" xml:space="preserve" y="3.5">A1(1,2)</text></g><defs><clipPath id="clip214"><path d="M-137.5,-235.5 L536.5,-235.5 L536.5,107.5 L-137.5,107.5 L-137.5,-235.5 z"/></clipPath></defs><g clip-path="url(#clip214)" fill="none" opacity="1" stroke="#000000" stroke-linecap="butt" stroke-linejoin="miter" stroke-miterlimit="2" stroke-opacity="1" stroke-width="1" transform="matrix(1,0,0,1,137.5,235.5)"><path d="M50,46 L0,23 L50,0 L50,46 z" fill-rule="nonzero" vector-effect="none"/></g><defs><clipPath id="clip217"><path d="M-137,-295 L537,-295 L537,48 L-137,48 L-137,-295 z"/></clipPath></defs><g clip-path="url(#clip217)" fill="#ffffff" fill-opacity="1" opacity="1" stroke="none" stroke-opacity="0" transform="matrix(1,0,0,1,137,295)"><path d="M50,46 L0,23 L50,0 L50,46 z" fill-rule="nonzero" vector-effect="none"/></g><defs><clipPath id="clip221"><path d="M-31,-23 L19,-23 L19,23 L-31,23 L-31,-23 z"/></clipPath></defs><g clip-path="url(#clip221)" fill="none" opacity="1" stroke="#000000" stroke-linecap="butt" stroke-linejoin="miter" stroke-miterlimit="2" stroke-opacity="1" stroke-width="1" transform="matrix(1,0,0,1,168,318)"><text fill="#000000" fill-opacity="1" font-family="Arial" font-size="10" font-style="normal" font-weight="400" stroke="none" textLength="32.7188" x="-16.3594" xml:space="preserve" y="3.5">A1(1,3)</text></g><defs><clipPath id="clip226"><path d="M-137.5,-295.5 L536.5,-295.5 L536.5,47.5 L-137.5,47.5 L-137.5,-295.5 z"/></clipPath></defs><g clip-path="url(#clip226)" fill="none" opacity="1" stroke="#000000" stroke-linecap="butt" stroke-linejoin="miter" stroke-miterlimit="2" stroke-opacity="1" stroke-width="1" transform="matrix(1,0,0,1,137.5,295.5)"><path d="M50,46 L0,23 L50,0 L50,46 z" fill-rule="nonzero" vector-effect="none"/></g><defs><clipPath id="clip229"><path d="M-2,-53 L672,-53 L672,290 L-2,290 L-2,-53 z"/></clipPath></defs><g clip-path="url(#clip229)" fill="#ffffff" fill-opacity="1" opacity="1" stroke="none" stroke-opacity="0" transform="matrix(1,0,0,1,2,53)"><path d="M0,0 L30,0 L30,30 L0,30 L0,0 z" fill-rule="evenodd" vector-effect="none"/></g><defs><clipPath id="clip233"><path d="M0,0 L30,0 L30,30 L0,30 L0,0 z"/></clipPath></defs><g clip-path="url(#clip233)" fill="none" opacity="1" stroke="none" stroke-opacity="0" transform="matrix(1,0,0,1,2,53)"><path d="M0,0 L30,0 L30,30 L0,30 L0,0 z" fill-rule="evenodd" vector-effect="none"/></g><defs><clipPath id="clip243"><path d="M1,1 L31,1 L31,31 L1,31 L1,1 z"/></clipPath></defs><g clip-path="url(#clip243)" fill="none" opacity="1" stroke="#000000" stroke-linecap="round" stroke-linejoin="round" stroke-opacity="1" stroke-width="1" transform="matrix(1,0,0,1,1,52)"><path d="M4,26 L16,26 L16,6 L28,6" fill-rule="nonzero" vector-effect="none"/></g><defs><clipPath id="clip263"><path d="M-2.5,-53.5 L671.5,-53.5 L671.5,289.5 L-2.5,289.5 L-2.5,-53.5 z"/></clipPath></defs><g clip-path="url(#clip263)" fill="none" opacity="1" stroke="#000000" stroke-linecap="butt" stroke-linejoin="miter" stroke-miterlimit="2" stroke-opacity="1" stroke-width="1" transform="matrix(1,0,0,1,2.5,53.5)"><path d="M0,0 L30,0 L30,30 L0,30 L0,0 z" fill-rule="evenodd" vector-effect="none"/></g><defs><clipPath id="clip266"><path d="M-17,-85 L657,-85 L657,258 L-17,258 L-17,-85 z"/></clipPath></defs><g clip-path="url(#clip266)" fill="none" opacity="1" stroke="none" stroke-opacity="0" transform="matrix(1,0,0,1,17,85)"><path d="M-9.60156,0 L9.60156,0 L9.60156,14 L-9.60156,14 L-9.60156,0 z" fill-rule="evenodd" vector-effect="none"/></g><defs><clipPath id="clip270"><path d="M0,0 L19,0 L19,14 L0,14 L0,0 z"/></clipPath></defs><g clip-path="url(#clip270)" fill="none" opacity="1" stroke="#000000" stroke-linecap="square" stroke-linejoin="bevel" stroke-opacity="1" stroke-width="1" transform="matrix(1,0,0,1,7.39844,85)"><text fill="#000000" fill-opacity="1" font-family="Arial" font-size="10" font-style="normal" font-weight="400" stroke="none" textLength="17.2031" x="1" xml:space="preserve" y="10">u(k)</text></g><defs><clipPath id="clip278"><path d="M-582,-2 L92,-2 L92,341 L-582,341 L-582,-2 z"/></clipPath></defs><g clip-path="url(#clip278)" fill="#ffffff" fill-opacity="1" opacity="1" stroke="none" stroke-opacity="0" transform="matrix(1,0,0,1,582,2)"><path d="M0,0 L20,0 L20,67 L0,67 L0,0 z" fill-rule="nonzero" vector-effect="none"/></g><defs><clipPath id="clip282"><path d="M635,144 L655,144 L655,211 L635,211 L635,144 z"/></clipPath></defs><g clip-path="url(#clip282)" fill="none" opacity="1" stroke="#000000" stroke-linecap="butt" stroke-linejoin="miter" stroke-miterlimit="2" stroke-opacity="1" stroke-width="1" transform="matrix(1,0,0,1,-52.5,-141.5)"><polyline fill="none" points="638,170 642,170" vector-effect="none"/></g><defs><clipPath id="clip283"><path d="M635,144 L655,144 L655,211 L635,211 L635,144 z"/></clipPath></defs><g clip-path="url(#clip283)" fill="none" opacity="1" stroke="#000000" stroke-linecap="butt" stroke-linejoin="miter" stroke-miterlimit="2" stroke-opacity="1" stroke-width="1" transform="matrix(1,0,0,1,-52.5,-141.5)"><polyline fill="none" points="640,168 640,172" vector-effect="none"/></g><defs><clipPath id="clip284"><path d="M635,144 L655,144 L655,211 L635,211 L635,144 z"/></clipPath></defs><g clip-path="url(#clip284)" fill="none" opacity="1" stroke="#000000" stroke-linecap="butt" stroke-linejoin="miter" stroke-miterlimit="2" stroke-opacity="1" stroke-width="1" transform="matrix(1,0,0,1,-52.5,-141.5)"><polyline fill="none" points="638,185 642,185" vector-effect="none"/></g><defs><clipPath id="clip285"><path d="M635,144 L655,144 L655,211 L635,211 L635,144 z"/></clipPath></defs><g clip-path="url(#clip285)" fill="none" opacity="1" stroke="#000000" stroke-linecap="butt" stroke-linejoin="miter" stroke-miterlimit="2" stroke-opacity="1" stroke-width="1" transform="matrix(1,0,0,1,-52.5,-141.5)"><polyline fill="none" points="640,183 640,187" vector-effect="none"/></g><defs><clipPath id="clip286"><path d="M635,144 L655,144 L655,211 L635,211 L635,144 z"/></clipPath></defs><g clip-path="url(#clip286)" fill="none" opacity="1" stroke="#000000" stroke-linecap="butt" stroke-linejoin="miter" stroke-miterlimit="2" stroke-opacity="1" stroke-width="1" transform="matrix(1,0,0,1,-52.5,-141.5)"><polyline fill="none" points="638,200 642,200" vector-effect="none"/></g><defs><clipPath id="clip287"><path d="M635,144 L655,144 L655,211 L635,211 L635,144 z"/></clipPath></defs><g clip-path="url(#clip287)" fill="none" opacity="1" stroke="#000000" stroke-linecap="butt" stroke-linejoin="miter" stroke-miterlimit="2" stroke-opacity="1" stroke-width="1" transform="matrix(1,0,0,1,-52.5,-141.5)"><polyline fill="none" points="640,198 640,202" vector-effect="none"/></g><defs><clipPath id="clip292"><path d="M-582.5,-2.5 L91.5,-2.5 L91.5,340.5 L-582.5,340.5 L-582.5,-2.5 z"/></clipPath></defs><g clip-path="url(#clip292)" fill="none" opacity="1" stroke="#000000" stroke-linecap="butt" stroke-linejoin="miter" stroke-miterlimit="2" stroke-opacity="1" stroke-width="1" transform="matrix(1,0,0,1,582.5,2.5)"><path d="M0,0 L20,0 L20,67 L0,67 L0,0 z" fill-rule="nonzero" vector-effect="none"/></g><defs><clipPath id="clip295"><path d="M-482,-117 L192,-117 L192,226 L-482,226 L-482,-117 z"/></clipPath></defs><g clip-path="url(#clip295)" fill="#ffffff" fill-opacity="1" opacity="1" stroke="none" stroke-opacity="0" transform="matrix(1,0,0,1,482,117)"><path d="M0,0 L40,21 L0,42 L0,0 z" fill-rule="nonzero" vector-effect="none"/></g><defs><clipPath id="clip299"><path d="M-14,-21 L26,-21 L26,21 L-14,21 L-14,-21 z"/></clipPath></defs><g clip-path="url(#clip299)" fill="none" opacity="1" stroke="#000000" stroke-linecap="butt" stroke-linejoin="miter" stroke-miterlimit="2" stroke-opacity="1" stroke-width="1" transform="matrix(1,0,0,1,496,138)"><text fill="#000000" fill-opacity="1" font-family="Arial" font-size="10" font-style="normal" font-weight="400" stroke="none" textLength="24.9688" x="-12.4844" xml:space="preserve" y="3.5">C1(3)</text></g><defs><clipPath id="clip304"><path d="M-482.5,-117.5 L191.5,-117.5 L191.5,225.5 L-482.5,225.5 L-482.5,-117.5 z"/></clipPath></defs><g clip-path="url(#clip304)" fill="none" opacity="1" stroke="#000000" stroke-linecap="butt" stroke-linejoin="miter" stroke-miterlimit="2" stroke-opacity="1" stroke-width="1" transform="matrix(1,0,0,1,482.5,117.5)"><path d="M0,0 L40,21 L0,42 L0,0 z" fill-rule="nonzero" vector-effect="none"/></g><defs><clipPath id="clip307"><path d="M-482,-62 L192,-62 L192,281 L-482,281 L-482,-62 z"/></clipPath></defs><g clip-path="url(#clip307)" fill="#ffffff" fill-opacity="1" opacity="1" stroke="none" stroke-opacity="0" transform="matrix(1,0,0,1,482,62)"><path d="M0,0 L40,21 L0,42 L0,0 z" fill-rule="nonzero" vector-effect="none"/></g><defs><clipPath id="clip311"><path d="M-14,-21 L26,-21 L26,21 L-14,21 L-14,-21 z"/></clipPath></defs><g clip-path="url(#clip311)" fill="none" opacity="1" stroke="#000000" stroke-linecap="butt" stroke-linejoin="miter" stroke-miterlimit="2" stroke-opacity="1" stroke-width="1" transform="matrix(1,0,0,1,496,83)"><text fill="#000000" fill-opacity="1" font-family="Arial" font-size="10" font-style="normal" font-weight="400" stroke="none" textLength="24.9688" x="-12.4844" xml:space="preserve" y="3.5">C1(2)</text></g><defs><clipPath id="clip316"><path d="M-482.5,-62.5 L191.5,-62.5 L191.5,280.5 L-482.5,280.5 L-482.5,-62.5 z"/></clipPath></defs><g clip-path="url(#clip316)" fill="none" opacity="1" stroke="#000000" stroke-linecap="butt" stroke-linejoin="miter" stroke-miterlimit="2" stroke-opacity="1" stroke-width="1" transform="matrix(1,0,0,1,482.5,62.5)"><path d="M0,0 L40,21 L0,42 L0,0 z" fill-rule="nonzero" vector-effect="none"/></g><defs><clipPath id="clip319"><path d="M-482,-7 L192,-7 L192,336 L-482,336 L-482,-7 z"/></clipPath></defs><g clip-path="url(#clip319)" fill="#ffffff" fill-opacity="1" opacity="1" stroke="none" stroke-opacity="0" transform="matrix(1,0,0,1,482,7)"><path d="M0,0 L40,21 L0,42 L0,0 z" fill-rule="nonzero" vector-effect="none"/></g><defs><clipPath id="clip323"><path d="M-14,-21 L26,-21 L26,21 L-14,21 L-14,-21 z"/></clipPath></defs><g clip-path="url(#clip323)" fill="none" opacity="1" stroke="#000000" stroke-linecap="butt" stroke-linejoin="miter" stroke-miterlimit="2" stroke-opacity="1" stroke-width="1" transform="matrix(1,0,0,1,496,28)"><text fill="#000000" fill-opacity="1" font-family="Arial" font-size="10" font-style="normal" font-weight="400" stroke="none" textLength="24.9688" x="-12.4844" xml:space="preserve" y="3.5">C1(1)</text></g><defs><clipPath id="clip328"><path d="M-482.5,-7.5 L191.5,-7.5 L191.5,335.5 L-482.5,335.5 L-482.5,-7.5 z"/></clipPath></defs><g clip-path="url(#clip328)" fill="none" opacity="1" stroke="#000000" stroke-linecap="butt" stroke-linejoin="miter" stroke-miterlimit="2" stroke-opacity="1" stroke-width="1" transform="matrix(1,0,0,1,482.5,7.5)"><path d="M0,0 L40,21 L0,42 L0,0 z" fill-rule="nonzero" vector-effect="none"/></g><defs><clipPath id="clip331"><path d="M-642,-22 L32,-22 L32,321 L-642,321 L-642,-22 z"/></clipPath></defs><g clip-path="url(#clip331)" fill="#ffffff" fill-opacity="1" opacity="1" stroke="none" stroke-opacity="0" transform="matrix(1,0,0,1,642,22)"><path d="M0,0 L30,0 L30,32 L0,32 L0,0 z" fill-rule="evenodd" vector-effect="none"/></g><defs><clipPath id="clip335"><path d="M0,0 L30,0 L30,32 L0,32 L0,0 z"/></clipPath></defs><g clip-path="url(#clip335)" fill="none" opacity="1" stroke="none" stroke-opacity="0" transform="matrix(1,0,0,1,642,22)"><path d="M0,0 L30,0 L30,32 L0,32 L0,0 z" fill-rule="evenodd" vector-effect="none"/></g><defs><clipPath id="clip345"><path d="M1,1 L31,1 L31,33 L1,33 L1,1 z"/></clipPath></defs><g clip-path="url(#clip345)" fill="none" opacity="1" stroke="#000000" stroke-linecap="round" stroke-linejoin="round" stroke-opacity="1" stroke-width="1.3" transform="matrix(1,0,0,1,641,21)"><path d="M7,5.26667 L25,5.26667 C26.1046,5.26667 27,6.22179 27,7.4 L27,17 C27,18.1782 26.1046,19.1333 25,19.1333 L7,19.1333 C5.89543,19.1333 5,18.1782 5,17 L5,7.4 C5,6.22179 5.89543,5.26667 7,5.26667 z" fill-rule="nonzero" vector-effect="none"/></g><defs><clipPath id="clip365"><path d="M-642.5,-22.5 L31.5,-22.5 L31.5,320.5 L-642.5,320.5 L-642.5,-22.5 z"/></clipPath></defs><g clip-path="url(#clip365)" fill="none" opacity="1" stroke="#000000" stroke-linecap="butt" stroke-linejoin="miter" stroke-miterlimit="2" stroke-opacity="1" stroke-width="1" transform="matrix(1,0,0,1,642.5,22.5)"><path d="M0,0 L30,0 L30,32 L0,32 L0,0 z" fill-rule="evenodd" vector-effect="none"/></g><defs><clipPath id="clip368"><path d="M-657,-56 L17,-56 L17,287 L-657,287 L-657,-56 z"/></clipPath></defs><g clip-path="url(#clip368)" fill="none" opacity="1" stroke="none" stroke-opacity="0" transform="matrix(1,0,0,1,657,56)"><path d="M-9.32812,0 L9.32812,0 L9.32812,26 L-9.32812,26 L-9.32812,0 z" fill-rule="evenodd" vector-effect="none"/></g><defs><clipPath id="clip372"><path d="M0,0 L19,0 L19,26 L0,26 L0,0 z"/></clipPath></defs><g clip-path="url(#clip372)" fill="none" opacity="1" stroke="#000000" stroke-linecap="square" stroke-linejoin="bevel" stroke-opacity="1" stroke-width="1" transform="matrix(1,0,0,1,647.672,56)"><text fill="#000000" fill-opacity="1" font-family="Arial" font-size="10" font-style="normal" font-weight="400" stroke="none" textLength="16.6562" x="1" xml:space="preserve" y="10">y(k)</text></g><defs><clipPath id="clip380"><path d="M-147,-138 L527,-138 L527,205 L-147,205 L-147,-138 z"/></clipPath></defs><g clip-path="url(#clip380)" fill="#000000" fill-opacity="1" opacity="1" stroke="none" stroke-opacity="0" transform="matrix(1,0,0,1,147,138)"><path d="M0,0 L-8,-4 L-8,4 L0,0 z" fill-rule="nonzero" vector-effect="none"/></g><defs><clipPath id="clip383"><path d="M53,142 L727,142 L727,485 L53,485 L53,142 z"/></clipPath></defs><g clip-path="url(#clip383)" fill="none" opacity="1" stroke="#000000" stroke-linecap="butt" stroke-linejoin="miter" stroke-miterlimit="2" stroke-opacity="1" stroke-width="1" transform="matrix(1,0,0,1,-53,-142)"><path d="M140,255 L170,255 L170,280 L192,280" fill-rule="evenodd" vector-effect="none"/></g><defs><clipPath id="clip386"><path d="M53,142 L727,142 L727,485 L53,485 L53,142 z"/></clipPath></defs><g clip-path="url(#clip386)" fill="none" opacity="1" stroke="#000000" stroke-linecap="butt" stroke-linejoin="miter" stroke-miterlimit="2" stroke-opacity="1" stroke-width="1" transform="matrix(1,0,0,1,-53,-142)"><path d="M235,280 L276,280" fill-rule="evenodd" vector-effect="none"/></g><defs><clipPath id="clip391"><path d="M187,198 L-487,198 L-487,-145 L187,-145 L187,198 z"/></clipPath></defs><g clip-path="url(#clip391)" fill="#000000" fill-opacity="1" opacity="1" stroke="none" stroke-opacity="0" transform="matrix(-1,1.22465e-16,-1.22465e-16,-1,187,198)"><path d="M0,0 L-8,-4 L-8,4 L0,0 z" fill-rule="nonzero" vector-effect="none"/></g><defs><clipPath id="clip394"><path d="M53,142 L727,142 L727,485 L53,485 L53,142 z"/></clipPath></defs><g clip-path="url(#clip394)" fill="none" opacity="1" stroke="#000000" stroke-linecap="butt" stroke-linejoin="miter" stroke-miterlimit="2" stroke-opacity="1" stroke-width="1" transform="matrix(1,0,0,1,-53,-142)"><path d="M276,280 L276,340 L248,340" fill-rule="evenodd" vector-effect="none"/></g><defs><clipPath id="clip397"><path d="M-252,-138 L422,-138 L422,205 L-252,205 L-252,-138 z"/></clipPath></defs><g clip-path="url(#clip397)" fill="#000000" fill-opacity="1" opacity="1" stroke="none" stroke-opacity="0" transform="matrix(1,0,0,1,252,138)"><path d="M0,0 L-8,-4 L-8,4 L0,0 z" fill-rule="nonzero" vector-effect="none"/></g><defs><clipPath id="clip400"><path d="M53,142 L727,142 L727,485 L53,485 L53,142 z"/></clipPath></defs><g clip-path="url(#clip400)" fill="none" opacity="1" stroke="#000000" stroke-linecap="butt" stroke-linejoin="miter" stroke-miterlimit="2" stroke-opacity="1" stroke-width="1" transform="matrix(1,0,0,1,-53,-142)"><path d="M276,280 L297,280" fill-rule="evenodd" vector-effect="none"/></g><defs><clipPath id="clip403"><path d="M-482,-28 L192,-28 L192,315 L-482,315 L-482,-28 z"/></clipPath></defs><g clip-path="url(#clip403)" fill="#000000" fill-opacity="1" opacity="1" stroke="none" stroke-opacity="0" transform="matrix(1,0,0,1,482,28)"><path d="M0,0 L-8,-4 L-8,4 L0,0 z" fill-rule="nonzero" vector-effect="none"/></g><defs><clipPath id="clip406"><path d="M53,142 L727,142 L727,485 L53,485 L53,142 z"/></clipPath></defs><g clip-path="url(#clip406)" fill="none" opacity="1" stroke="#000000" stroke-linecap="butt" stroke-linejoin="miter" stroke-miterlimit="2" stroke-opacity="1" stroke-width="1" transform="matrix(1,0,0,1,-53,-142)"><path d="M276,280 L276,170 L527,170" fill-rule="evenodd" vector-effect="none"/></g><defs><clipPath id="clip409"><path d="M-223,-138 L451,-138 L451,205 L-223,205 L-223,-138 z"/></clipPath></defs><g clip-path="url(#clip409)" fill="#000000" fill-opacity="1" opacity="1" stroke="none" stroke-opacity="0" transform="matrix(1,0,0,1,223,138)"><path d="M2.5,0 C2.5,1.38071 1.38071,2.5 0,2.5 C-1.38071,2.5 -2.5,1.38071 -2.5,0 C-2.5,-1.38071 -1.38071,-2.5 0,-2.5 C1.38071,-2.5 2.5,-1.38071 2.5,0 z" fill-rule="evenodd" vector-effect="none"/></g><defs><clipPath id="clip412"><path d="M-62,-153 L612,-153 L612,190 L-62,190 L-62,-153 z"/></clipPath></defs><g clip-path="url(#clip412)" fill="#000000" fill-opacity="1" opacity="1" stroke="none" stroke-opacity="0" transform="matrix(1,0,0,1,62,153)"><path d="M0,0 L-8,-4 L-8,4 L0,0 z" fill-rule="nonzero" vector-effect="none"/></g><defs><clipPath id="clip415"><path d="M53,142 L727,142 L727,485 L53,485 L53,142 z"/></clipPath></defs><g clip-path="url(#clip415)" fill="none" opacity="1" stroke="#000000" stroke-linecap="butt" stroke-linejoin="miter" stroke-miterlimit="2" stroke-opacity="1" stroke-width="1" transform="matrix(1,0,0,1,-53,-142)"><path d="M190,340 L100,340 L100,295 L107,295" fill-rule="evenodd" vector-effect="none"/></g><defs><clipPath id="clip418"><path d="M-62,-133 L612,-133 L612,210 L-62,210 L-62,-133 z"/></clipPath></defs><g clip-path="url(#clip418)" fill="#000000" fill-opacity="1" opacity="1" stroke="none" stroke-opacity="0" transform="matrix(1,0,0,1,62,133)"><path d="M0,0 L-8,-4 L-8,4 L0,0 z" fill-rule="nonzero" vector-effect="none"/></g><defs><clipPath id="clip421"><path d="M53,142 L727,142 L727,485 L53,485 L53,142 z"/></clipPath></defs><g clip-path="url(#clip421)" fill="none" opacity="1" stroke="#000000" stroke-linecap="butt" stroke-linejoin="miter" stroke-miterlimit="2" stroke-opacity="1" stroke-width="1" transform="matrix(1,0,0,1,-53,-142)"><path d="M190,400 L86,400 L86,275 L107,275" fill-rule="evenodd" vector-effect="none"/></g><defs><clipPath id="clip424"><path d="M53,142 L727,142 L727,485 L53,485 L53,142 z"/></clipPath></defs><g clip-path="url(#clip424)" fill="none" opacity="1" stroke="#000000" stroke-linecap="butt" stroke-linejoin="miter" stroke-miterlimit="2" stroke-opacity="1" stroke-width="1" transform="matrix(1,0,0,1,-53,-142)"><path d="M340,280 L387,280" fill-rule="evenodd" vector-effect="none"/></g><defs><clipPath id="clip429"><path d="M187,258 L-487,258 L-487,-85 L187,-85 L187,258 z"/></clipPath></defs><g clip-path="url(#clip429)" fill="#000000" fill-opacity="1" opacity="1" stroke="none" stroke-opacity="0" transform="matrix(-1,1.22465e-16,-1.22465e-16,-1,187,258)"><path d="M0,0 L-8,-4 L-8,4 L0,0 z" fill-rule="nonzero" vector-effect="none"/></g><defs><clipPath id="clip432"><path d="M53,142 L727,142 L727,485 L53,485 L53,142 z"/></clipPath></defs><g clip-path="url(#clip432)" fill="none" opacity="1" stroke="#000000" stroke-linecap="butt" stroke-linejoin="miter" stroke-miterlimit="2" stroke-opacity="1" stroke-width="1" transform="matrix(1,0,0,1,-53,-142)"><path d="M387,280 L387,400 L248,400" fill-rule="evenodd" vector-effect="none"/></g><defs><clipPath id="clip435"><path d="M-482,-83 L192,-83 L192,260 L-482,260 L-482,-83 z"/></clipPath></defs><g clip-path="url(#clip435)" fill="#000000" fill-opacity="1" opacity="1" stroke="none" stroke-opacity="0" transform="matrix(1,0,0,1,482,83)"><path d="M0,0 L-8,-4 L-8,4 L0,0 z" fill-rule="nonzero" vector-effect="none"/></g><defs><clipPath id="clip438"><path d="M53,142 L727,142 L727,485 L53,485 L53,142 z"/></clipPath></defs><g clip-path="url(#clip438)" fill="none" opacity="1" stroke="#000000" stroke-linecap="butt" stroke-linejoin="miter" stroke-miterlimit="2" stroke-opacity="1" stroke-width="1" transform="matrix(1,0,0,1,-53,-142)"><path d="M387,280 L387,225 L527,225" fill-rule="evenodd" vector-effect="none"/></g><defs><clipPath id="clip441"><path d="M-367,-138 L307,-138 L307,205 L-367,205 L-367,-138 z"/></clipPath></defs><g clip-path="url(#clip441)" fill="#000000" fill-opacity="1" opacity="1" stroke="none" stroke-opacity="0" transform="matrix(1,0,0,1,367,138)"><path d="M0,0 L-8,-4 L-8,4 L0,0 z" fill-rule="nonzero" vector-effect="none"/></g><defs><clipPath id="clip444"><path d="M53,142 L727,142 L727,485 L53,485 L53,142 z"/></clipPath></defs><g clip-path="url(#clip444)" fill="none" opacity="1" stroke="#000000" stroke-linecap="butt" stroke-linejoin="miter" stroke-miterlimit="2" stroke-opacity="1" stroke-width="1" transform="matrix(1,0,0,1,-53,-142)"><path d="M387,280 L412,280" fill-rule="evenodd" vector-effect="none"/></g><defs><clipPath id="clip447"><path d="M-334,-138 L340,-138 L340,205 L-334,205 L-334,-138 z"/></clipPath></defs><g clip-path="url(#clip447)" fill="#000000" fill-opacity="1" opacity="1" stroke="none" stroke-opacity="0" transform="matrix(1,0,0,1,334,138)"><path d="M2.5,0 C2.5,1.38071 1.38071,2.5 0,2.5 C-1.38071,2.5 -2.5,1.38071 -2.5,0 C-2.5,-1.38071 -1.38071,-2.5 0,-2.5 C1.38071,-2.5 2.5,-1.38071 2.5,0 z" fill-rule="evenodd" vector-effect="none"/></g><defs><clipPath id="clip450"><path d="M53,142 L727,142 L727,485 L53,485 L53,142 z"/></clipPath></defs><g clip-path="url(#clip450)" fill="none" opacity="1" stroke="#000000" stroke-linecap="butt" stroke-linejoin="miter" stroke-miterlimit="2" stroke-opacity="1" stroke-width="1" transform="matrix(1,0,0,1,-53,-142)"><path d="M455,280 L506,280" fill-rule="evenodd" vector-effect="none"/></g><defs><clipPath id="clip455"><path d="M187,318 L-487,318 L-487,-25 L187,-25 L187,318 z"/></clipPath></defs><g clip-path="url(#clip455)" fill="#000000" fill-opacity="1" opacity="1" stroke="none" stroke-opacity="0" transform="matrix(-1,1.22465e-16,-1.22465e-16,-1,187,318)"><path d="M0,0 L-8,-4 L-8,4 L0,0 z" fill-rule="nonzero" vector-effect="none"/></g><defs><clipPath id="clip458"><path d="M53,142 L727,142 L727,485 L53,485 L53,142 z"/></clipPath></defs><g clip-path="url(#clip458)" fill="none" opacity="1" stroke="#000000" stroke-linecap="butt" stroke-linejoin="miter" stroke-miterlimit="2" stroke-opacity="1" stroke-width="1" transform="matrix(1,0,0,1,-53,-142)"><path d="M506,280 L506,460 L248,460" fill-rule="evenodd" vector-effect="none"/></g><defs><clipPath id="clip461"><path d="M-482,-138 L192,-138 L192,205 L-482,205 L-482,-138 z"/></clipPath></defs><g clip-path="url(#clip461)" fill="#000000" fill-opacity="1" opacity="1" stroke="none" stroke-opacity="0" transform="matrix(1,0,0,1,482,138)"><path d="M0,0 L-8,-4 L-8,4 L0,0 z" fill-rule="nonzero" vector-effect="none"/></g><defs><clipPath id="clip464"><path d="M53,142 L727,142 L727,485 L53,485 L53,142 z"/></clipPath></defs><g clip-path="url(#clip464)" fill="none" opacity="1" stroke="#000000" stroke-linecap="butt" stroke-linejoin="miter" stroke-miterlimit="2" stroke-opacity="1" stroke-width="1" transform="matrix(1,0,0,1,-53,-142)"><path d="M506,280 L527,280" fill-rule="evenodd" vector-effect="none"/></g><defs><clipPath id="clip467"><path d="M-453,-138 L221,-138 L221,205 L-453,205 L-453,-138 z"/></clipPath></defs><g clip-path="url(#clip467)" fill="#000000" fill-opacity="1" opacity="1" stroke="none" stroke-opacity="0" transform="matrix(1,0,0,1,453,138)"><path d="M2.5,0 C2.5,1.38071 1.38071,2.5 0,2.5 C-1.38071,2.5 -2.5,1.38071 -2.5,0 C-2.5,-1.38071 -1.38071,-2.5 0,-2.5 C1.38071,-2.5 2.5,-1.38071 2.5,0 z" fill-rule="evenodd" vector-effect="none"/></g><defs><clipPath id="clip470"><path d="M-62,-113 L612,-113 L612,230 L-62,230 L-62,-113 z"/></clipPath></defs><g clip-path="url(#clip470)" fill="#000000" fill-opacity="1" opacity="1" stroke="none" stroke-opacity="0" transform="matrix(1,0,0,1,62,113)"><path d="M0,0 L-8,-4 L-8,4 L0,0 z" fill-rule="nonzero" vector-effect="none"/></g><defs><clipPath id="clip473"><path d="M53,142 L727,142 L727,485 L53,485 L53,142 z"/></clipPath></defs><g clip-path="url(#clip473)" fill="none" opacity="1" stroke="#000000" stroke-linecap="butt" stroke-linejoin="miter" stroke-miterlimit="2" stroke-opacity="1" stroke-width="1" transform="matrix(1,0,0,1,-53,-142)"><path d="M190,460 L68,460 L68,255 L107,255" fill-rule="evenodd" vector-effect="none"/></g><defs><clipPath id="clip476"><path d="M-582,-58 L92,-58 L92,285 L-582,285 L-582,-58 z"/></clipPath></defs><g clip-path="url(#clip476)" fill="#000000" fill-opacity="1" opacity="1" stroke="none" stroke-opacity="0" transform="matrix(1,0,0,1,582,58)"><path d="M0,0 L-8,-4 L-8,4 L0,0 z" fill-rule="nonzero" vector-effect="none"/></g><defs><clipPath id="clip479"><path d="M53,142 L727,142 L727,485 L53,485 L53,142 z"/></clipPath></defs><g clip-path="url(#clip479)" fill="none" opacity="1" stroke="#000000" stroke-linecap="butt" stroke-linejoin="miter" stroke-miterlimit="2" stroke-opacity="1" stroke-width="1" transform="matrix(1,0,0,1,-53,-142)"><path d="M575,280 L615,280 L615,200 L627,200" fill-rule="evenodd" vector-effect="none"/></g><defs><clipPath id="clip482"><path d="M-582,-43 L92,-43 L92,300 L-582,300 L-582,-43 z"/></clipPath></defs><g clip-path="url(#clip482)" fill="#000000" fill-opacity="1" opacity="1" stroke="none" stroke-opacity="0" transform="matrix(1,0,0,1,582,43)"><path d="M0,0 L-8,-4 L-8,4 L0,0 z" fill-rule="nonzero" vector-effect="none"/></g><defs><clipPath id="clip485"><path d="M53,142 L727,142 L727,485 L53,485 L53,142 z"/></clipPath></defs><g clip-path="url(#clip485)" fill="none" opacity="1" stroke="#000000" stroke-linecap="butt" stroke-linejoin="miter" stroke-miterlimit="2" stroke-opacity="1" stroke-width="1" transform="matrix(1,0,0,1,-53,-142)"><path d="M575,225 L596,225 L596,185 L627,185" fill-rule="evenodd" vector-effect="none"/></g><defs><clipPath id="clip488"><path d="M-582,-28 L92,-28 L92,315 L-582,315 L-582,-28 z"/></clipPath></defs><g clip-path="url(#clip488)" fill="#000000" fill-opacity="1" opacity="1" stroke="none" stroke-opacity="0" transform="matrix(1,0,0,1,582,28)"><path d="M0,0 L-8,-4 L-8,4 L0,0 z" fill-rule="nonzero" vector-effect="none"/></g><defs><clipPath id="clip491"><path d="M53,142 L727,142 L727,485 L53,485 L53,142 z"/></clipPath></defs><g clip-path="url(#clip491)" fill="none" opacity="1" stroke="#000000" stroke-linecap="butt" stroke-linejoin="miter" stroke-miterlimit="2" stroke-opacity="1" stroke-width="1" transform="matrix(1,0,0,1,-53,-142)"><path d="M575,170 L627,170" fill-rule="evenodd" vector-effect="none"/></g><defs><clipPath id="clip494"><path d="M-642,-38 L32,-38 L32,305 L-642,305 L-642,-38 z"/></clipPath></defs><g clip-path="url(#clip494)" fill="#000000" fill-opacity="1" opacity="1" stroke="none" stroke-opacity="0" transform="matrix(1,0,0,1,642,38)"><path d="M0,0 L-8,-4 L-8,4 L0,0 z" fill-rule="nonzero" vector-effect="none"/></g><defs><clipPath id="clip497"><path d="M53,142 L727,142 L727,485 L53,485 L53,142 z"/></clipPath></defs><g clip-path="url(#clip497)" fill="none" opacity="1" stroke="#000000" stroke-linecap="butt" stroke-linejoin="miter" stroke-miterlimit="2" stroke-opacity="1" stroke-width="1" transform="matrix(1,0,0,1,-53,-142)"><path d="M655,180 L687,180" fill-rule="evenodd" vector-effect="none"/></g><defs><clipPath id="clip500"><path d="M-62,-93 L612,-93 L612,250 L-62,250 L-62,-93 z"/></clipPath></defs><g clip-path="url(#clip500)" fill="#000000" fill-opacity="1" opacity="1" stroke="none" stroke-opacity="0" transform="matrix(1,0,0,1,62,93)"><path d="M0,0 L-8,-4 L-8,4 L0,0 z" fill-rule="nonzero" vector-effect="none"/></g><defs><clipPath id="clip503"><path d="M53,142 L727,142 L727,485 L53,485 L53,142 z"/></clipPath></defs><g clip-path="url(#clip503)" fill="none" opacity="1" stroke="#000000" stroke-linecap="butt" stroke-linejoin="miter" stroke-miterlimit="2" stroke-opacity="1" stroke-width="1" transform="matrix(1,0,0,1,-53,-142)"><path d="M85,210 L99,210 L99,235 L107,235" fill-rule="evenodd" vector-effect="none"/></g></g><!--generated on windows @ 2018-04-26 18:53:50 Central European Summer Time--></svg>
