<?xml version="1.0" encoding="UTF-8"?><svg width="85.4604mm" height="53.7104mm" viewBox="0 0 323 203" xmlns="http://www.w3.org/2000/svg" xmlns:xlink="http://www.w3.org/1999/xlink"><g fill="none" stroke="black" stroke-width="1" fill-rule="evenodd" stroke-linecap="square" stroke-linejoin="bevel"><g clip-path="none" fill="#ffffff" fill-opacity="1" opacity="1" stroke="none" stroke-opacity="0" transform="matrix(1,0,0,1,0,0)"><path d="M0,0 L322.5,0 L322.5,203 L0,203 L0,0 z" fill-rule="evenodd" vector-effect="none"/></g><defs><clipPath id="clip3"><path d="M-67,-103 L255.5,-103 L255.5,100 L-67,100 L-67,-103 z"/></clipPath></defs><g clip-path="url(#clip3)" fill="#ffffff" fill-opacity="1" opacity="1" stroke="none" stroke-opacity="0" transform="matrix(1,0,0,1,67,103)"><path d="M0,0 L50,0 L50,60 L0,60 L0,0 z" fill-rule="evenodd" vector-effect="none"/></g><defs><clipPath id="clip7"><path d="M-3,-15 L47,-15 L47,45 L-3,45 L-3,-15 z"/></clipPath></defs><g clip-path="url(#clip7)" fill="none" opacity="1" stroke="#000000" stroke-linecap="butt" stroke-linejoin="miter" stroke-miterlimit="2" stroke-opacity="1" stroke-width="1" transform="matrix(1,0,0,1,70,118)"><text fill="#000000" fill-opacity="1" font-family="Arial" font-size="9" font-style="normal" font-weight="400" stroke="none" textLength="16" x="0" xml:space="preserve" y="3">y(k)</text></g><defs><clipPath id="clip8"><path d="M-3,-45 L47,-45 L47,15 L-3,15 L-3,-45 z"/></clipPath></defs><g clip-path="url(#clip8)" fill="none" opacity="1" stroke="#000000" stroke-linecap="butt" stroke-linejoin="miter" stroke-miterlimit="2" stroke-opacity="1" stroke-width="1" transform="matrix(1,0,0,1,70,148)"><text fill="#000000" fill-opacity="1" font-family="Arial" font-size="9" font-style="normal" font-weight="400" stroke="none" textLength="16" x="0" xml:space="preserve" y="3">u(k)</text></g><defs><clipPath id="clip9"><path d="M-47,-15 L3,-15 L3,45 L-47,45 L-47,-15 z"/></clipPath></defs><g clip-path="url(#clip9)" fill="none" opacity="1" stroke="#000000" stroke-linecap="butt" stroke-linejoin="miter" stroke-miterlimit="2" stroke-opacity="1" stroke-width="1" transform="matrix(1,0,0,1,114,118)"><text fill="#000000" fill-opacity="1" font-family="Arial" font-size="9" font-style="normal" font-weight="400" stroke="none" textLength="21.9531" x="-21.9531" xml:space="preserve" y="3">w1(k)</text></g><defs><clipPath id="clip10"><path d="M-47,-45 L3,-45 L3,15 L-47,15 L-47,-45 z"/></clipPath></defs><g clip-path="url(#clip10)" fill="none" opacity="1" stroke="#000000" stroke-linecap="butt" stroke-linejoin="miter" stroke-miterlimit="2" stroke-opacity="1" stroke-width="1" transform="matrix(1,0,0,1,114,148)"><text fill="#000000" fill-opacity="1" font-family="Arial" font-size="9" font-style="normal" font-weight="400" stroke="none" textLength="21.9531" x="-21.9531" xml:space="preserve" y="3">w2(k)</text></g><defs><clipPath id="clip15"><path d="M-66.5,-103.5 L256,-103.5 L256,99.5 L-66.5,99.5 L-66.5,-103.5 z"/></clipPath></defs><g clip-path="url(#clip15)" fill="none" opacity="1" stroke="#000000" stroke-linecap="butt" stroke-linejoin="miter" stroke-miterlimit="2" stroke-opacity="1" stroke-width="1" transform="matrix(1,0,0,1,66.5,103.5)"><path d="M0,0 L50,0 L50,60 L0,60 L0,0 z" fill-rule="evenodd" vector-effect="none"/></g><defs><clipPath id="clip18"><path d="M-91.5,-165 L231,-165 L231,38 L-91.5,38 L-91.5,-165 z"/></clipPath></defs><g clip-path="url(#clip18)" fill="none" opacity="1" stroke="none" stroke-opacity="0" transform="matrix(1,0,0,1,91.5,165)"><path d="M-26.1875,0 L26.1875,0 L26.1875,26 L-26.1875,26 L-26.1875,0 z" fill-rule="evenodd" vector-effect="none"/></g><defs><clipPath id="clip22"><path d="M0,0 L52,0 L52,26 L0,26 L0,0 z"/></clipPath></defs><g clip-path="url(#clip22)" fill="none" opacity="1" stroke="#000000" stroke-linecap="square" stroke-linejoin="bevel" stroke-opacity="1" stroke-width="1" transform="matrix(1,0,0,1,65.3125,165)"><text fill="#000000" fill-opacity="1" font-family="Arial" font-size="10" font-style="normal" font-weight="400" stroke="none" textLength="49.375" x="1.5" xml:space="preserve" y="10">obserwator</text></g><defs><clipPath id="clip30"><path d="M-116.5,-53 L206,-53 L206,150 L-116.5,150 L-116.5,-53 z"/></clipPath></defs><g clip-path="url(#clip30)" fill="none" opacity="1" stroke="#000000" stroke-linecap="round" stroke-linejoin="miter" stroke-miterlimit="2" stroke-opacity="1" stroke-width="2" transform="matrix(1,0,0,1,116.5,53)"><path d="M0,-5 L5,0 L0,5" fill-rule="evenodd" vector-effect="none"/></g><defs><clipPath id="clip33"><path d="M-116.5,-33 L206,-33 L206,170 L-116.5,170 L-116.5,-33 z"/></clipPath></defs><g clip-path="url(#clip33)" fill="none" opacity="1" stroke="#000000" stroke-linecap="round" stroke-linejoin="miter" stroke-miterlimit="2" stroke-opacity="1" stroke-width="2" transform="matrix(1,0,0,1,116.5,33)"><path d="M0,-5 L5,0 L0,5" fill-rule="evenodd" vector-effect="none"/></g><defs><clipPath id="clip36"><path d="M-67,-2 L255.5,-2 L255.5,201 L-67,201 L-67,-2 z"/></clipPath></defs><g clip-path="url(#clip36)" fill="#ffffff" fill-opacity="1" opacity="1" stroke="none" stroke-opacity="0" transform="matrix(1,0,0,1,67,2)"><path d="M0,0 L50,0 L50,62 L0,62 L0,0 z" fill-rule="evenodd" vector-effect="none"/></g><defs><clipPath id="clip40"><path d="M-3,-31 L47,-31 L47,31 L-3,31 L-3,-31 z"/></clipPath></defs><g clip-path="url(#clip40)" fill="none" opacity="1" stroke="#000000" stroke-linecap="butt" stroke-linejoin="miter" stroke-miterlimit="2" stroke-opacity="1" stroke-width="1" transform="matrix(1,0,0,1,70,33)"><text fill="#000000" fill-opacity="1" font-family="Arial" font-size="9" font-style="normal" font-weight="400" stroke="none" textLength="16" x="0" xml:space="preserve" y="3">u(k)</text></g><defs><clipPath id="clip41"><path d="M-47,-11 L3,-11 L3,51 L-47,51 L-47,-11 z"/></clipPath></defs><g clip-path="url(#clip41)" fill="none" opacity="1" stroke="#000000" stroke-linecap="butt" stroke-linejoin="miter" stroke-miterlimit="2" stroke-opacity="1" stroke-width="1" transform="matrix(1,0,0,1,114,13)"><text fill="#000000" fill-opacity="1" font-family="Arial" font-size="9" font-style="normal" font-weight="400" stroke="none" textLength="19.9688" x="-19.9688" xml:space="preserve" y="3">x1(k)</text></g><defs><clipPath id="clip42"><path d="M-47,-31 L3,-31 L3,31 L-47,31 L-47,-31 z"/></clipPath></defs><g clip-path="url(#clip42)" fill="none" opacity="1" stroke="#000000" stroke-linecap="butt" stroke-linejoin="miter" stroke-miterlimit="2" stroke-opacity="1" stroke-width="1" transform="matrix(1,0,0,1,114,33)"><text fill="#000000" fill-opacity="1" font-family="Arial" font-size="9" font-style="normal" font-weight="400" stroke="none" textLength="19.9688" x="-19.9688" xml:space="preserve" y="3">x2(k)</text></g><defs><clipPath id="clip43"><path d="M-47,-51 L3,-51 L3,11 L-47,11 L-47,-51 z"/></clipPath></defs><g clip-path="url(#clip43)" fill="none" opacity="1" stroke="#000000" stroke-linecap="butt" stroke-linejoin="miter" stroke-miterlimit="2" stroke-opacity="1" stroke-width="1" transform="matrix(1,0,0,1,114,53)"><text fill="#000000" fill-opacity="1" font-family="Arial" font-size="9" font-style="normal" font-weight="400" stroke="none" textLength="19.9688" x="-19.9688" xml:space="preserve" y="3">x3(k)</text></g><defs><clipPath id="clip48"><path d="M-66.5,-2.5 L256,-2.5 L256,200.5 L-66.5,200.5 L-66.5,-2.5 z"/></clipPath></defs><g clip-path="url(#clip48)" fill="none" opacity="1" stroke="#000000" stroke-linecap="butt" stroke-linejoin="miter" stroke-miterlimit="2" stroke-opacity="1" stroke-width="1" transform="matrix(1,0,0,1,66.5,2.5)"><path d="M0,0 L50,0 L50,62 L0,62 L0,0 z" fill-rule="evenodd" vector-effect="none"/></g><defs><clipPath id="clip51"><path d="M-91.5,-66 L231,-66 L231,137 L-91.5,137 L-91.5,-66 z"/></clipPath></defs><g clip-path="url(#clip51)" fill="none" opacity="1" stroke="none" stroke-opacity="0" transform="matrix(1,0,0,1,91.5,66)"><path d="M-14.5938,0 L14.5938,0 L14.5938,26 L-14.5938,26 L-14.5938,0 z" fill-rule="evenodd" vector-effect="none"/></g><defs><clipPath id="clip55"><path d="M0,0 L29,0 L29,26 L0,26 L0,0 z"/></clipPath></defs><g clip-path="url(#clip55)" fill="none" opacity="1" stroke="#000000" stroke-linecap="square" stroke-linejoin="bevel" stroke-opacity="1" stroke-width="1" transform="matrix(1,0,0,1,76.9062,66)"><text fill="#000000" fill-opacity="1" font-family="Arial" font-size="10" font-style="normal" font-weight="400" stroke="none" textLength="27.1875" x="1" xml:space="preserve" y="10">model</text></g><defs><clipPath id="clip63"><path d="M-247,-73 L75.5,-73 L75.5,130 L-247,130 L-247,-73 z"/></clipPath></defs><g clip-path="url(#clip63)" fill="#ffffff" fill-opacity="1" opacity="1" stroke="none" stroke-opacity="0" transform="matrix(1,0,0,1,247,73)"><path d="M0,0 L60,0 L60,90 L0,90 L0,0 z" fill-rule="evenodd" vector-effect="none"/></g><defs><clipPath id="clip67"><path d="M-3,-15 L57,-15 L57,75 L-3,75 L-3,-15 z"/></clipPath></defs><g clip-path="url(#clip67)" fill="none" opacity="1" stroke="#000000" stroke-linecap="butt" stroke-linejoin="miter" stroke-miterlimit="2" stroke-opacity="1" stroke-width="1" transform="matrix(1,0,0,1,250,88)"><text fill="#000000" fill-opacity="1" font-family="Arial" font-size="9" font-style="normal" font-weight="400" stroke="none" textLength="19.9688" x="0" xml:space="preserve" y="3">x1(k)</text></g><defs><clipPath id="clip68"><path d="M-3,-45 L57,-45 L57,45 L-3,45 L-3,-45 z"/></clipPath></defs><g clip-path="url(#clip68)" fill="none" opacity="1" stroke="#000000" stroke-linecap="butt" stroke-linejoin="miter" stroke-miterlimit="2" stroke-opacity="1" stroke-width="1" transform="matrix(1,0,0,1,250,118)"><text fill="#000000" fill-opacity="1" font-family="Arial" font-size="9" font-style="normal" font-weight="400" stroke="none" textLength="19.9688" x="0" xml:space="preserve" y="3">x2(k)</text></g><defs><clipPath id="clip69"><path d="M-3,-75 L57,-75 L57,15 L-3,15 L-3,-75 z"/></clipPath></defs><g clip-path="url(#clip69)" fill="none" opacity="1" stroke="#000000" stroke-linecap="butt" stroke-linejoin="miter" stroke-miterlimit="2" stroke-opacity="1" stroke-width="1" transform="matrix(1,0,0,1,250,148)"><text fill="#000000" fill-opacity="1" font-family="Arial" font-size="9" font-style="normal" font-weight="400" stroke="none" textLength="19.9688" x="0" xml:space="preserve" y="3">x3(k)</text></g><defs><clipPath id="clip70"><path d="M-57,-45 L3,-45 L3,45 L-57,45 L-57,-45 z"/></clipPath></defs><g clip-path="url(#clip70)" fill="none" opacity="1" stroke="#000000" stroke-linecap="butt" stroke-linejoin="miter" stroke-miterlimit="2" stroke-opacity="1" stroke-width="1" transform="matrix(1,0,0,1,304,118)"><text fill="#000000" fill-opacity="1" font-family="Arial" font-size="9" font-style="normal" font-weight="400" stroke="none" textLength="16" x="-17.9688" xml:space="preserve" y="3">u(k)</text></g><defs><clipPath id="clip75"><path d="M-246.5,-73.5 L76,-73.5 L76,129.5 L-246.5,129.5 L-246.5,-73.5 z"/></clipPath></defs><g clip-path="url(#clip75)" fill="none" opacity="1" stroke="#000000" stroke-linecap="butt" stroke-linejoin="miter" stroke-miterlimit="2" stroke-opacity="1" stroke-width="1" transform="matrix(1,0,0,1,246.5,73.5)"><path d="M0,0 L60,0 L60,90 L0,90 L0,0 z" fill-rule="evenodd" vector-effect="none"/></g><defs><clipPath id="clip78"><path d="M-276.5,-165 L46,-165 L46,38 L-276.5,38 L-276.5,-165 z"/></clipPath></defs><g clip-path="url(#clip78)" fill="none" opacity="1" stroke="none" stroke-opacity="0" transform="matrix(1,0,0,1,276.5,165)"><path d="M-21.1875,0 L21.1875,0 L21.1875,14 L-21.1875,14 L-21.1875,0 z" fill-rule="evenodd" vector-effect="none"/></g><defs><clipPath id="clip82"><path d="M0,0 L42,0 L42,14 L0,14 L0,0 z"/></clipPath></defs><g clip-path="url(#clip82)" fill="none" opacity="1" stroke="#000000" stroke-linecap="square" stroke-linejoin="bevel" stroke-opacity="1" stroke-width="1" transform="matrix(1,0,0,1,255.312,165)"><text fill="#000000" fill-opacity="1" font-family="Arial" font-size="10" font-style="normal" font-weight="400" stroke="none" textLength="39.375" x="1.5" xml:space="preserve" y="10">regulator</text></g><defs><clipPath id="clip90"><path d="M-247,-118 L75.5,-118 L75.5,85 L-247,85 L-247,-118 z"/></clipPath></defs><g clip-path="url(#clip90)" fill="#000000" fill-opacity="1" opacity="1" stroke="none" stroke-opacity="0" transform="matrix(1,0,0,1,247,118)"><path d="M0,0 L-8,-4 L-8,4 L0,0 z" fill-rule="nonzero" vector-effect="none"/></g><defs><clipPath id="clip93"><path d="M443.5,172 L766,172 L766,375 L443.5,375 L443.5,172 z"/></clipPath></defs><g clip-path="url(#clip93)" fill="none" opacity="1" stroke="#000000" stroke-linecap="butt" stroke-linejoin="miter" stroke-miterlimit="2" stroke-opacity="1" stroke-width="1" transform="matrix(1,0,0,1,-443.5,-172)"><path d="M560,290 L682,290" fill-rule="evenodd" vector-effect="none"/></g><defs><clipPath id="clip96"><path d="M-247,-148 L75.5,-148 L75.5,55 L-247,55 L-247,-148 z"/></clipPath></defs><g clip-path="url(#clip96)" fill="#000000" fill-opacity="1" opacity="1" stroke="none" stroke-opacity="0" transform="matrix(1,0,0,1,247,148)"><path d="M0,0 L-8,-4 L-8,4 L0,0 z" fill-rule="nonzero" vector-effect="none"/></g><defs><clipPath id="clip99"><path d="M443.5,172 L766,172 L766,375 L443.5,375 L443.5,172 z"/></clipPath></defs><g clip-path="url(#clip99)" fill="none" opacity="1" stroke="#000000" stroke-linecap="butt" stroke-linejoin="miter" stroke-miterlimit="2" stroke-opacity="1" stroke-width="1" transform="matrix(1,0,0,1,-443.5,-172)"><path d="M560,320 L682,320" fill-rule="evenodd" vector-effect="none"/></g><defs><clipPath id="clip102"><path d="M443.5,172 L766,172 L766,375 L443.5,375 L443.5,172 z"/></clipPath></defs><g clip-path="url(#clip102)" fill="none" opacity="1" stroke="#000000" stroke-linecap="butt" stroke-linejoin="miter" stroke-miterlimit="2" stroke-opacity="1" stroke-width="1" transform="matrix(1,0,0,1,-443.5,-172)"><path d="M750,290 L764,290 L764,373 L448,373 L448,320" fill-rule="evenodd" vector-effect="none"/></g><defs><clipPath id="clip107"><path d="M-67,-148 L255.5,-148 L255.5,55 L-67,55 L-67,-148 z"/></clipPath></defs><g clip-path="url(#clip107)" fill="#000000" fill-opacity="1" opacity="1" stroke="none" stroke-opacity="0" transform="matrix(1,0,0,1,67,148)"><path d="M0,0 L-8,-4 L-8,4 L0,0 z" fill-rule="nonzero" vector-effect="none"/></g><defs><clipPath id="clip110"><path d="M443.5,172 L766,172 L766,375 L443.5,375 L443.5,172 z"/></clipPath></defs><g clip-path="url(#clip110)" fill="none" opacity="1" stroke="#000000" stroke-linecap="butt" stroke-linejoin="miter" stroke-miterlimit="2" stroke-opacity="1" stroke-width="1" transform="matrix(1,0,0,1,-443.5,-172)"><path d="M448,320 L502,320" fill-rule="evenodd" vector-effect="none"/></g><defs><clipPath id="clip113"><path d="M-67,-33 L255.5,-33 L255.5,170 L-67,170 L-67,-33 z"/></clipPath></defs><g clip-path="url(#clip113)" fill="#000000" fill-opacity="1" opacity="1" stroke="none" stroke-opacity="0" transform="matrix(1,0,0,1,67,33)"><path d="M0,0 L-8,-4 L-8,4 L0,0 z" fill-rule="nonzero" vector-effect="none"/></g><defs><clipPath id="clip116"><path d="M443.5,172 L766,172 L766,375 L443.5,375 L443.5,172 z"/></clipPath></defs><g clip-path="url(#clip116)" fill="none" opacity="1" stroke="#000000" stroke-linecap="butt" stroke-linejoin="miter" stroke-miterlimit="2" stroke-opacity="1" stroke-width="1" transform="matrix(1,0,0,1,-443.5,-172)"><path d="M448,320 L448,205 L502,205" fill-rule="evenodd" vector-effect="none"/></g><defs><clipPath id="clip119"><path d="M-4.5,-148 L318,-148 L318,55 L-4.5,55 L-4.5,-148 z"/></clipPath></defs><g clip-path="url(#clip119)" fill="#000000" fill-opacity="1" opacity="1" stroke="none" stroke-opacity="0" transform="matrix(1,0,0,1,4.5,148)"><path d="M2.5,0 C2.5,1.38071 1.38071,2.5 0,2.5 C-1.38071,2.5 -2.5,1.38071 -2.5,0 C-2.5,-1.38071 -1.38071,-2.5 0,-2.5 C1.38071,-2.5 2.5,-1.38071 2.5,0 z" fill-rule="evenodd" vector-effect="none"/></g><defs><clipPath id="clip122"><path d="M443.5,172 L766,172 L766,375 L443.5,375 L443.5,172 z"/></clipPath></defs><g clip-path="url(#clip122)" fill="none" opacity="1" stroke="#000000" stroke-linecap="butt" stroke-linejoin="miter" stroke-miterlimit="2" stroke-opacity="1" stroke-width="1" transform="matrix(1,0,0,1,-443.5,-172)"><path d="M560,185 L649,185 L649,260" fill-rule="evenodd" vector-effect="none"/></g><defs><clipPath id="clip127"><path d="M-67,-118 L255.5,-118 L255.5,85 L-67,85 L-67,-118 z"/></clipPath></defs><g clip-path="url(#clip127)" fill="#000000" fill-opacity="1" opacity="1" stroke="none" stroke-opacity="0" transform="matrix(1,0,0,1,67,118)"><path d="M0,0 L-8,-4 L-8,4 L0,0 z" fill-rule="nonzero" vector-effect="none"/></g><defs><clipPath id="clip130"><path d="M443.5,172 L766,172 L766,375 L443.5,375 L443.5,172 z"/></clipPath></defs><g clip-path="url(#clip130)" fill="none" opacity="1" stroke="#000000" stroke-linecap="butt" stroke-linejoin="miter" stroke-miterlimit="2" stroke-opacity="1" stroke-width="1" transform="matrix(1,0,0,1,-443.5,-172)"><path d="M649,260 L479,260 L479,290 L502,290" fill-rule="evenodd" vector-effect="none"/></g><defs><clipPath id="clip133"><path d="M-247,-88 L75.5,-88 L75.5,115 L-247,115 L-247,-88 z"/></clipPath></defs><g clip-path="url(#clip133)" fill="#000000" fill-opacity="1" opacity="1" stroke="none" stroke-opacity="0" transform="matrix(1,0,0,1,247,88)"><path d="M0,0 L-8,-4 L-8,4 L0,0 z" fill-rule="nonzero" vector-effect="none"/></g><defs><clipPath id="clip136"><path d="M443.5,172 L766,172 L766,375 L443.5,375 L443.5,172 z"/></clipPath></defs><g clip-path="url(#clip136)" fill="none" opacity="1" stroke="#000000" stroke-linecap="butt" stroke-linejoin="miter" stroke-miterlimit="2" stroke-opacity="1" stroke-width="1" transform="matrix(1,0,0,1,-443.5,-172)"><path d="M649,260 L682,260" fill-rule="evenodd" vector-effect="none"/></g><defs><clipPath id="clip139"><path d="M-205.5,-88 L117,-88 L117,115 L-205.5,115 L-205.5,-88 z"/></clipPath></defs><g clip-path="url(#clip139)" fill="#000000" fill-opacity="1" opacity="1" stroke="none" stroke-opacity="0" transform="matrix(1,0,0,1,205.5,88)"><path d="M2.5,0 C2.5,1.38071 1.38071,2.5 0,2.5 C-1.38071,2.5 -2.5,1.38071 -2.5,0 C-2.5,-1.38071 -1.38071,-2.5 0,-2.5 C1.38071,-2.5 2.5,-1.38071 2.5,0 z" fill-rule="evenodd" vector-effect="none"/></g></g><!--generated on windows @ 2018-04-26 23:45:31 Central European Summer Time--></svg>
